<?xml version="1.0" encoding="utf-8"?>
<!-- Generator: Adobe Illustrator 26.4.0, SVG Export Plug-In . SVG Version: 6.00 Build 0)  -->
<svg version="1.1" id="Isolation_Mode" xmlns="http://www.w3.org/2000/svg" xmlns:xlink="http://www.w3.org/1999/xlink" x="0px"
	 y="0px" viewBox="0 0 106 174" style="enable-background:new 0 0 106 174;" xml:space="preserve">
<style type="text/css">
	.st0{fill:#004E64;}
	.st1{fill:#66CC96;}
	.st2{fill:#12B2AE;}
	.st3{fill:#FFFFFF;}
</style>
<g>
	<g>
		<g>
			<path class="st0" d="M5.7,126.1c-1.1-0.9-1.5-2.2-1.5-3.7v-8H7v7.8c0,0.9,0.2,1.7,0.9,2.2c0.4,0.4,1.3,0.7,2.4,0.7
				s1.7-0.2,2.4-0.7c0.4-0.4,0.9-1.3,0.9-2.2v-7.8h2.8v8c0,1.5-0.4,2.8-1.5,3.7c-1.1,0.9-2.4,1.3-4.3,1.3S6.8,127,5.7,126.1z"/>
			<path class="st0" d="M18.6,114.4h6.3c1.5,0,2.6,0.4,3.3,1.1c0.7,0.9,1.1,1.7,1.1,3.3c0,0.9-0.2,1.5-0.7,2.2
				c-0.4,0.7-1.1,1.1-2,1.3c0.2,0.2,0.4,0.4,0.4,0.7c0.2,0.2,0.2,0.4,0.4,0.9l1.5,3.7h-2.8l-1.5-3.5c0-0.4-0.2-0.7-0.2-0.9
				c-0.2-0.2-0.4-0.2-0.9-0.2h-2.2v4.3h-2.8v-12.9H18.6z M24.2,120.7c0.7,0,1.3-0.2,1.7-0.4c0.4-0.4,0.7-0.9,0.7-1.5
				s-0.2-1.3-0.4-1.5c-0.7-0.4-1.1-0.7-1.7-0.7h-3v4.1H24.2z"/>
			<path class="st0" d="M31.6,114.4h6.7c1.3,0,2.2,0.2,2.8,0.9c0.7,0.7,0.9,1.5,0.9,2.6c0,0.7-0.2,1.3-0.4,1.7s-0.7,0.9-1.1,1.1
				c0.7,0.2,1.1,0.4,1.5,0.9c0.4,0.4,0.4,1.1,0.4,2c0,1.3-0.4,2.2-1.1,2.8c-0.7,0.7-1.7,0.9-3,0.9h-7v-12.8L31.6,114.4L31.6,114.4z
				 M37.7,119.6c1.3,0,2-0.7,2-1.7c0-0.7-0.2-1.1-0.4-1.3s-0.9-0.4-1.5-0.4h-3.3v3.3L37.7,119.6L37.7,119.6L37.7,119.6z M37.9,125.3
				c0.7,0,1.3-0.2,1.5-0.4c0.2-0.2,0.4-0.9,0.4-1.5s-0.2-1.1-0.4-1.3c-0.4-0.2-0.9-0.4-1.7-0.4h-3.3v3.7L37.9,125.3L37.9,125.3z"/>
			<path class="st0" d="M49,114.4h3l5,12.8h-2.8l-1.3-3h-4.8l-1.3,3H44L49,114.4z M52.5,122l-2-5.2l-2,5.2H52.5z"/>
			<path class="st0" d="M59.2,114.4h2.4l6.3,8.7v-8.7h2.8v12.8h-2.4l-6.3-8.7v8.7h-2.8C59.2,127.2,59.2,114.4,59.2,114.4z"/>
			<path class="st0" d="M4.2,135.5h6.3c1.5,0,2.6,0.4,3.3,1.1c0.7,0.9,1.1,1.7,1.1,3.3c0,0.9-0.2,1.5-0.7,2.2
				c-0.4,0.7-1.1,1.1-2,1.3c0.2,0.2,0.4,0.4,0.4,0.7c0.2,0.2,0.2,0.4,0.4,0.9l1.5,3.7H12l-1.5-3.7c-0.2-0.2-0.2-0.4-0.4-0.7
				C9.9,144,9.6,144,9.2,144H7v4.3H4.2V135.5z M9.9,141.8c0.7,0,1.3-0.2,1.7-0.4c0.4-0.4,0.7-0.9,0.7-1.5c0-0.7-0.2-1.3-0.4-1.5
				c-0.4-0.4-0.9-0.4-1.5-0.4H7v4.1h2.8L9.9,141.8L9.9,141.8z"/>
			<path class="st0" d="M17.2,135.5h9.4v2.2h-6.5v3.3H26v2.2h-5.9v3.3h6.5v2.2h-9.4V135.5z"/>
			<path class="st0" d="M28.8,147.9v-2.4c0.7,0.2,1.3,0.4,2,0.7c0.7,0.2,1.3,0.2,2,0.2c1.1,0,1.7,0,2.2-0.2s0.7-0.7,0.7-1.1
				s0-0.7-0.2-0.9s-0.4-0.4-0.9-0.7c-0.4-0.2-1.1-0.4-2-0.7c-1.3-0.4-2.4-0.9-2.8-1.3c-0.7-0.7-0.9-1.3-0.9-2.4s0.4-2.2,1.3-2.8
				c0.9-0.7,2.2-0.9,3.9-0.9c0.7,0,1.5,0,2.2,0.2c0.7,0,1.3,0.2,1.7,0.4v2.4c-1.1-0.4-2.2-0.7-3.5-0.7c-0.9,0-1.5,0-2.2,0.2
				c-0.4,0.2-0.7,0.7-0.7,1.1s0,0.7,0.2,0.9s0.4,0.4,0.9,0.4c0.4,0.2,1.1,0.4,2,0.7c1.5,0.4,2.6,0.9,3.3,1.5
				c0.7,0.7,0.9,1.5,0.9,2.4c0,1.1-0.4,2.2-1.3,2.8c-0.9,0.7-2.2,1.1-3.9,1.1C31.2,148.5,29.9,148.3,28.8,147.9z"/>
			<path class="st0" d="M40.5,135.5h9.4v2.2h-6.7v3.3H49v2.2h-5.9v3.3h6.7v2.2h-9.4C40.5,148.5,40.5,135.5,40.5,135.5z"/>
			<path class="st0" d="M56.8,135.5h3l5,12.8H62l-1.3-3H56l-1.3,3h-2.8L56.8,135.5z M60.3,143.1l-2-5.2l-2,5.2H60.3z"/>
			<path class="st0" d="M66.8,135.5h6.3c1.5,0,2.6,0.4,3.3,1.1c0.7,0.9,1.1,1.7,1.1,3.3c0,0.9-0.2,1.5-0.7,2.2
				c-0.4,0.7-1.1,1.1-2,1.3c0.2,0.2,0.4,0.4,0.4,0.7c0.2,0.2,0.2,0.4,0.4,0.9l1.5,3.7h-2.8L73,145c-0.2-0.2-0.2-0.4-0.4-0.7
				c-0.2-0.2-0.4-0.2-0.9-0.2h-2.2v4.3h-2.8L66.8,135.5L66.8,135.5z M72.5,141.8c0.7,0,1.3-0.2,1.7-0.4c0.4-0.4,0.7-0.9,0.7-1.5
				c0-0.7-0.2-1.3-0.4-1.5c-0.4-0.4-0.9-0.4-1.5-0.4h-3v4.1h2.6L72.5,141.8L72.5,141.8z"/>
			<path class="st0" d="M81.2,146.8c-1.1-1.1-1.7-2.8-1.7-4.8c0-2.2,0.7-3.9,1.7-5c1.1-1.1,2.8-1.7,5-1.7c1.3,0,2.6,0.2,3.9,0.7v2.4
				c-1.1-0.4-2.4-0.7-3.7-0.7c-1.5,0-2.6,0.4-3.3,1.1c-0.7,0.7-1.1,2-1.1,3.5s0.4,2.4,1.1,3.3c0.7,0.7,1.7,1.1,3.3,1.1
				c1.3,0,2.6-0.2,3.7-0.7v2.4c-1.3,0.4-2.6,0.7-3.9,0.7C84,148.5,82.3,148.1,81.2,146.8z"/>
			<path class="st0" d="M92.5,135.5h2.8v5.4h5.7v-5.4h2.8v12.8H101v-5.4h-5.7v5.4h-2.8V135.5z"/>
			<path class="st0" d="M4.2,156.6H7v12.8H4.2V156.6z"/>
			<path class="st0" d="M9.9,156.6h2.4l6.3,8.7v-8.7h2.8v12.8h-2.6l-6.3-8.7v8.7H9.9V156.6z"/>
			<path class="st0" d="M23.8,169v-2.4c0.7,0.2,1.3,0.4,2,0.7c0.7,0.2,1.3,0.2,2,0.2c1.1,0,1.7,0,2.2-0.2c0.4-0.2,0.7-0.7,0.7-1.1
				s0-0.7-0.2-0.9s-0.4-0.4-0.9-0.7c-0.4-0.2-1.1-0.4-2-0.7c-1.3-0.4-2.4-0.9-2.8-1.3c-0.7-0.7-0.9-1.3-0.9-2.4s0.4-2.2,1.3-2.8
				c0.9-0.7,2.2-0.9,3.9-0.9c0.7,0,1.5,0,2.2,0.2c0.7,0,1.3,0.2,1.7,0.4v2.4c-1.1-0.4-2.2-0.7-3.5-0.7c-0.9,0-1.5,0-2.2,0.2
				c-0.4,0.2-0.7,0.7-0.7,1.1s0,0.7,0.2,0.9s0.4,0.4,0.9,0.4c0.4,0.2,1.1,0.4,2,0.7c1.5,0.4,2.6,0.9,3.3,1.5
				c0.7,0.7,0.9,1.5,0.9,2.4c0,1.1-0.4,2.2-1.3,2.8s-2.2,1.1-3.9,1.1C26.2,169.6,24.9,169.4,23.8,169z"/>
			<path class="st0" d="M38.6,158.8h-4.1v-2.2h10.9v2.2h-3.9v10.9h-2.8C38.6,169.6,38.6,158.8,38.6,158.8z"/>
			<path class="st0" d="M47.3,156.6h2.8v12.8h-2.8V156.6z"/>
			<path class="st0" d="M56,158.8h-4.1v-2.2h10.9v2.2h-3.9v10.9H56C56,169.6,56,158.8,56,158.8z"/>
			<path class="st0" d="M66.2,168.3c-1.1-0.9-1.5-2.2-1.5-3.7v-8h2.8v7.8c0,0.9,0.2,1.7,0.9,2.2c0.4,0.4,1.3,0.7,2.4,0.7
				s1.7-0.2,2.4-0.7c0.4-0.4,0.9-1.3,0.9-2.2v-7.8h2.8v8c0,1.5-0.4,2.8-1.5,3.7s-2.4,1.3-4.3,1.3C69,169.6,67,169.2,66.2,168.3z"/>
			<path class="st0" d="M82.1,158.8H78v-2.2h10.9v2.2H85v10.9h-2.8L82.1,158.8L82.1,158.8z"/>
			<path class="st0" d="M90.8,156.6h9.4v2.2h-6.7v3.3h5.9v2.2h-5.9v3.3h6.7v2.2h-9.4V156.6z"/>
		</g>
	</g>
	<g>
		<g>
			<path class="st0" d="M101.8,49.8V3.9H56v45.9L101.8,49.8L101.8,49.8z"/>
		</g>
	</g>
	<g>
		<g>
			<path class="st1" d="M50.3,101.4V55.5H4.2v45.9H50.3L50.3,101.4z"/>
		</g>
	</g>
	<g>
		<g>
			<path class="st2" d="M101.8,101.4V55.5H56v45.9H101.8L101.8,101.4z"/>
		</g>
	</g>
	<g>
		<rect x="4.2" y="3.9" class="st2" width="45.9" height="45.9"/>
	</g>
	<g>
		<g>
			<path class="st3" d="M20.3,36.6c-1.5-1.5-2.4-3.7-2.4-6.5V15h2v15.2c0,2.2,0.7,3.9,2,5.2c1.3,1.1,3,1.7,5.7,1.7
				c2.4,0,4.1-0.7,5.4-1.7c1.3-1,2-2.8,2-5.2V15h2v15c0,2.8-0.9,5-2.4,6.5s-3.9,2.2-7.2,2.2C24.2,38.7,21.8,38.1,20.3,36.6z"/>
		</g>
	</g>
	<g>
		<g>
			<path class="st3" d="M70.5,15h9.8c2.4,0,4.1,0.7,5.2,1.7c1.1,1.3,1.7,2.8,1.7,5.2c0,1.7-0.4,3.3-1.3,4.3s-2.2,2-3.9,2.2
				c0.4,0.2,0.9,0.4,1.1,0.9c0.2,0.4,0.7,0.9,0.9,1.5l3,7.4h-2l-3-7c-0.2-0.7-0.7-1.1-0.9-1.3c-0.2-0.2-0.7-0.7-1.3-0.7
				C79.4,29,78.5,29,77.6,29h-5.4v9.4h-2V15H70.5z M79.7,27.4c3.7,0,5.7-1.7,5.7-5.4c0-3.5-1.7-5.4-5.2-5.4h-7.6v10.9h7.1V27.4z"/>
		</g>
	</g>
	<g>
		<g>
			<path class="st3" d="M77.9,66.8h2V90h-2V66.8z"/>
		</g>
	</g>
</g>
</svg>
